<?xml version="1.0" encoding="utf-8"?>
<!-- Generator: Adobe Illustrator 18.0.0, SVG Export Plug-In . SVG Version: 6.00 Build 0)  -->
<!DOCTYPE svg PUBLIC "-//W3C//DTD SVG 1.1//EN" "http://www.w3.org/Graphics/SVG/1.1/DTD/svg11.dtd">
<svg version="1.1" id="Layer_1" xmlns="http://www.w3.org/2000/svg" xmlns:xlink="http://www.w3.org/1999/xlink" x="0px" y="0px"
	 width="600px" height="600px" viewBox="0 0 600 600" style="enable-background:new 0 0 600 600;" xml:space="preserve">
<style type="text/css">
	.st0{fill:#A6DAE9;}
	.st1{fill:#F99B1C;}
	.st2{fill:#15B0BF;}
	.st3{fill:#4C8EB4;}
	.st4{fill:#E8E8E8;}
</style>
<g>
	<path class="st0" d="M372.8,440.9c-3.2,9.8-8.3,18.6-15.1,26l51.6,72.1c26.1-22.5,44.9-53.2,52-88.3L372.8,440.9z"/>
	<path class="st1" d="M320.1,349.5c30.1,6.3,52.9,31.6,55.9,62.8l88.3,9.7c0-1,0.1-2,0.1-3c0-82.8-63.4-150.7-144.3-158V349.5z"/>
	<path class="st2" d="M253.4,371.4c9.8-10.9,22.9-18.8,37.9-21.9V261c-47.2,4.2-88.1,29.1-114.4,65.4L253.4,371.4z"/>
	<path class="st3" d="M334.3,483.8c-8.8,3.9-18.4,6.2-28.7,6.2c-39.2,0-71-31.8-71-71c0-8,1.6-15.5,4.1-22.7l-76.5-45.1
		c-9.7,20.6-15.4,43.5-15.4,67.8c0,87.7,71.1,158.8,158.8,158.8c29.3,0,56.6-8,80.2-21.9L334.3,483.8z"/>
</g>
<g>
	<rect x="71.6" y="18.8" class="st1" width="73.9" height="21.5"/>
	<rect x="71.6" y="67.9" class="st2" width="73.9" height="21.5"/>
	<rect x="71.6" y="116.9" class="st0" width="73.9" height="21.5"/>
	<rect x="71.6" y="165.9" class="st3" width="73.9" height="21.5"/>
	<rect x="195.6" y="19.9" class="st4" width="344.1" height="24.2"/>
	<rect x="195.6" y="116.2" class="st4" width="310.8" height="24.2"/>
	<rect x="195.6" y="164.4" class="st4" width="268.9" height="24.2"/>
	<rect x="195.6" y="68.1" class="st4" width="344.1" height="24.2"/>
</g>
</svg>
