<?xml version="1.0" encoding="utf-8"?>
<!-- Generator: Adobe Illustrator 18.0.0, SVG Export Plug-In . SVG Version: 6.00 Build 0)  -->
<!DOCTYPE svg PUBLIC "-//W3C//DTD SVG 1.1//EN" "http://www.w3.org/Graphics/SVG/1.1/DTD/svg11.dtd">
<svg version="1.1" id="Layer_1" xmlns="http://www.w3.org/2000/svg" xmlns:xlink="http://www.w3.org/1999/xlink" x="0px" y="0px"
	 width="1347.8px" height="289px" viewBox="0 0 1347.8 289" style="enable-background:new 0 0 1347.8 289;" xml:space="preserve">
<style type="text/css">
	.st0{display:none;}
	.st1{display:inline;}
	.st2{fill:#71BFD9;}
	.st3{fill:#137E9B;}
	.st4{display:inline;opacity:0.25;}
	.st5{fill:#FFFFFF;}
	.st6{fill:#5DB5D3;}
	.st7{fill:#37383D;}
	.st8{opacity:0.25;}
	.st9{opacity:0.59;}
</style>
<g class="st0">
	<g class="st1">
		<path class="st2" d="M-145.7,78.4h-107c-6.9,0-12.5,5.9-12.5,13.2v135.3c0,7.3,5.6,13.2,12.5,13.2h75.3c2.5,0,4.9-1.1,6.5-3.1
			l35.7-43.4c1.4-1.6,2.1-3.8,2.1-5.9v-96C-133.2,84.3-138.8,78.4-145.7,78.4z"/>
	</g>
	<g class="st1">
		<g>
			<path class="st3" d="M-173.5,194.9v45.2l40.3-49.1h-36.7C-171.9,191-173.5,192.8-173.5,194.9z"/>
		</g>
	</g>
	<g class="st4">
		<path class="st5" d="M-167.9,200.9l-5.6,39.2l40.3-49.1l-32.1,7.1C-166.7,198.2-167.9,199.4-167.9,200.9z"/>
	</g>
</g>
<g class="st0">
	<g class="st1">
		<path class="st6" d="M-104.2,65.6h-126c-8.1,0-14.8,7-14.8,15.6v159.3c0,8.6,6.6,15.6,14.8,15.6h88.6c2.9,0,5.7-1.3,7.7-3.7
			l42-51.1c1.6-1.9,2.5-4.4,2.5-7V81.2C-89.5,72.6-96.1,65.6-104.2,65.6z"/>
	</g>
	<g class="st1">
		<g>
			<path class="st3" d="M-137,202.8V256l47.5-57.8h-43.2C-135.1,198.2-137,200.3-137,202.8z"/>
		</g>
	</g>
	<g class="st4">
		<path class="st5" d="M-130.4,209.9L-137,256l47.5-57.8l-37.7,8.4C-129,206.6-130.4,208.1-130.4,209.9z"/>
	</g>
</g>
<g>
	<g>
		<path class="st7" d="M20.7,146.8c0-3.1,0-5.8,0-8.1s0-4.2,0-6c0-1.7,0-3.4-0.1-5c-0.1-1.6-0.2-3.3-0.4-5.1h10.4
			c0.2,1.8,0.3,3.5,0.4,5c0.1,1.5,0.2,3.1,0.3,4.8c0.1,1.7,0.1,3.7,0.1,6c0,2.2,0,4.9,0,8.1c1.3-2.5,3.1-5.3,5.5-8.4
			c2.3-3.1,5.2-6.1,8.7-8.8c3.5-2.7,7.6-5,12.4-6.8c4.8-1.8,10.3-2.7,16.6-2.7c11.1,0,19.5,2.4,25.3,7.1c5.8,4.7,9.8,11.4,12.1,20
			v-0.2c1.2-2.3,3-5,5.6-8.1c2.6-3.1,5.7-6,9.5-8.8c3.8-2.8,8.2-5.2,13.1-7.1c5-1.9,10.5-2.9,16.6-2.9c7.6,0,14,1.2,19.2,3.5
			c5.2,2.3,9.3,5.7,12.4,10c3.1,4.4,5.2,9.7,6.6,15.9c1.3,6.2,2,13.1,2,20.7v66.9h-11.2v-63.2c0-8.4-0.7-15.5-2-21.1
			c-1.3-5.6-3.3-10.1-6-13.4c-2.6-3.3-5.8-5.6-9.5-6.9c-3.7-1.3-8.1-2-13-2c-5.6,0-10.9,1.2-15.9,3.5c-5,2.3-9.3,5.4-13,9.2
			c-3.7,3.8-6.7,8.1-8.8,13c-2.2,4.9-3.2,10-3.2,15.2v65.7h-11.2v-63.2c0-8.4-0.7-15.5-2-21.1c-1.3-5.6-3.3-10.1-5.8-13.4
			c-2.6-3.3-5.7-5.6-9.4-6.9c-3.7-1.3-8.1-2-13-2c-6.8,0-12.7,1.5-17.9,4.5c-5.1,3-9.4,6.8-12.9,11.4c-3.5,4.6-6.1,9.8-7.8,15.4
			c-1.7,5.6-2.6,11.2-2.6,16.6v58.8H20.7V146.8z"/>
	</g>
	<g>
		<path class="st7" d="M283.3,239.7c-8.1,0-15.7-1.6-22.8-4.7c-7.1-3.1-13.4-7.4-18.7-12.9c-5.4-5.5-9.6-11.8-12.6-19.1
			c-3.1-7.3-4.6-15-4.6-23.3c0-8.3,1.5-16,4.6-23.3c3.1-7.3,7.3-13.6,12.6-19.1c5.4-5.5,11.6-9.8,18.7-12.9
			c7.1-3.1,14.7-4.7,22.8-4.7c8.1,0,15.7,1.6,22.8,4.7c7.1,3.1,13.3,7.4,18.7,12.9c5.4,5.5,9.6,11.8,12.6,19.1
			c3.1,7.3,4.6,15,4.6,23.3c0,8.3-1.5,16-4.6,23.3c-3.1,7.3-7.3,13.6-12.6,19.1c-5.4,5.5-11.6,9.8-18.7,12.9
			C299,238.2,291.4,239.7,283.3,239.7z M283.3,229.6c6.6,0,12.8-1.3,18.6-4c5.8-2.6,10.8-6.2,15-10.7c4.2-4.5,7.5-9.7,9.9-15.7
			c2.4-6,3.6-12.5,3.6-19.5c0-6.6-1.2-12.9-3.7-19c-2.5-6-5.8-11.4-10-16c-4.2-4.6-9.2-8.3-15-10.9c-5.8-2.6-11.9-4-18.3-4
			c-6.8,0-13,1.3-18.7,4c-5.7,2.6-10.7,6.2-14.9,10.7c-4.2,4.5-7.5,9.7-9.9,15.7c-2.4,6-3.6,12.5-3.6,19.5c0,6.8,1.2,13.1,3.7,19.1
			c2.5,6,5.8,11.2,10,15.9c4.2,4.6,9.2,8.3,15,10.9C270.7,228.3,276.9,229.6,283.3,229.6z"/>
	</g>
	<g>
		<path class="st7" d="M370.6,71.4h11.2V143c1.5-2.5,3.3-5.1,5.6-7.8c2.2-2.7,5-5.2,8.3-7.6c3.3-2.3,7.2-4.2,11.8-5.7
			c4.5-1.5,10-2.2,16.2-2.2c8.8,0,16.4,1.5,22.8,4.6c6.4,3.1,11.8,7.3,16,12.6c4.2,5.4,7.4,11.7,9.4,19.1c2.1,7.4,3.1,15.3,3.1,23.9
			c0,9.6-1.6,18.1-4.8,25.5s-7.7,13.7-13.4,18.7c-5.7,5-12.4,8.9-20.1,11.5c-7.7,2.6-16,4-24.9,4c-8.3,0-16.1-0.7-23.4-2.1
			c-7.4-1.4-13.3-3.1-17.7-5.1V71.4z M381.5,224.9c2,0.7,5.4,1.6,10.3,2.7c4.9,1.2,11.6,1.7,20.2,1.7c7.3,0,14-1,20.2-3.1
			c6.2-2.1,11.6-5.2,16.2-9.3c4.6-4.1,8.2-9.3,10.8-15.5c2.6-6.2,3.8-13.4,3.8-21.7c0-6.6-0.7-12.9-2.2-19c-1.5-6-3.8-11.3-7.1-15.7
			s-7.4-8-12.5-10.7c-5.1-2.6-11.4-4-18.8-4c-6.9,0-13,1.5-18.1,4.5c-5.1,3-9.4,6.7-12.8,11.2c-3.4,4.5-5.9,9.4-7.6,14.8
			c-1.7,5.4-2.5,10.5-2.5,15.2V224.9z"/>
	</g>
	<g>
		<path class="st7" d="M501.7,82.5h15.6v16.1h-15.6V82.5z M504,122.7h11.2v114.1H504V122.7z"/>
	</g>
	<g>
		<path class="st7" d="M549.9,71.4H561v165.4h-11.2V71.4z"/>
	</g>
	<g>
		<path class="st7" d="M694.2,219.7c-5,6.3-11.7,11.2-20.2,14.8c-8.5,3.6-17.2,5.3-26.2,5.3c-8.4,0-16.2-1.4-23.4-4.3
			c-7.2-2.9-13.4-7-18.5-12.3c-5.1-5.3-9.1-11.6-12-19c-2.9-7.4-4.3-15.5-4.3-24.4c0-8.3,1.4-16,4.1-23.3
			c2.7-7.3,6.5-13.6,11.3-19.1c4.8-5.5,10.6-9.8,17.4-12.9c6.8-3.1,14.2-4.7,22.3-4.7c7.8,0,15,1.4,21.7,4.1
			c6.7,2.7,12.5,6.7,17.4,12c4.9,5.3,8.7,11.9,11.4,19.7c2.7,7.9,4.1,16.9,4.1,27.2h-97.2c0.2,6.4,1.4,12.5,3.7,18.2
			c2.3,5.7,5.5,10.7,9.4,14.9c4,4.2,8.7,7.5,14.3,9.9c5.5,2.4,11.7,3.6,18.5,3.6c3.5,0,7.1-0.4,10.8-1.1c3.7-0.7,7.3-1.9,10.8-3.3
			c3.5-1.5,6.7-3.2,9.5-5.2c2.9-2,5.3-4.2,7.3-6.7L694.2,219.7z M687,173c-1.5-14-6-24.7-13.4-32c-7.4-7.3-17.1-10.9-29-10.9
			c-6.1,0-11.7,1.1-16.7,3.3c-5,2.2-9.4,5.3-13,9.2c-3.6,3.9-6.6,8.4-8.8,13.6c-2.2,5.2-3.5,10.8-3.8,16.7H687z"/>
	</g>
	<g>
		<path class="st7" d="M854,240.2c-8.9,0-17.1-1.6-24.6-4.8s-13.8-7.6-19.2-13.3c-5.4-5.6-9.6-12.1-12.6-19.5
			c-3.1-7.4-4.6-15.2-4.6-23.7c0-8.4,1.5-16.3,4.6-23.7c3.1-7.4,7.3-13.8,12.6-19.5c5.4-5.6,11.8-10,19.2-13.3
			c7.4-3.2,15.6-4.8,24.6-4.8c8.8,0,16.9,1.6,24.3,4.8c7.4,3.2,13.9,7.6,19.3,13.3c5.5,5.6,9.7,12.1,12.8,19.5
			c3.1,7.4,4.6,15.2,4.6,23.7c0,8.4-1.5,16.3-4.6,23.7c-3.1,7.4-7.3,13.8-12.8,19.5c-5.5,5.6-11.9,10-19.3,13.3
			C870.8,238.6,862.7,240.2,854,240.2z M854,220.9c5.9,0,11.3-1.2,16.1-3.6c4.8-2.4,8.8-5.5,12.1-9.4c3.3-3.9,5.8-8.3,7.6-13.4
			c1.7-5,2.6-10.2,2.6-15.5c0-5.1-0.9-10.2-2.6-15.2c-1.7-5-4.3-9.5-7.7-13.5c-3.4-4-7.4-7.1-12.1-9.5c-4.7-2.4-10-3.6-16-3.6
			c-6,0-11.3,1.2-16.1,3.6c-4.8,2.4-8.8,5.5-12.1,9.4c-3.3,3.9-5.8,8.3-7.6,13.4c-1.7,5-2.6,10.2-2.6,15.5c0,5.3,0.9,10.4,2.6,15.4
			c1.7,5,4.3,9.4,7.7,13.4c3.4,4,7.4,7.2,12.2,9.5C842.7,219.7,848,220.9,854,220.9z"/>
	</g>
	<g>
		<path class="st7" d="M1227.2,207.8c4.1,4.1,9.1,7.4,14.9,9.9c5.8,2.5,12.5,3.7,20.1,3.7c7.4,0,13.6-1.2,18.6-3.6
			c5-2.4,7.4-6.2,7.4-11.3c0-2.6-0.5-4.9-1.6-6.8c-1.1-1.9-2.9-3.6-5.5-5.1c-2.6-1.5-6-2.9-10.2-4.1c-4.2-1.2-9.5-2.6-15.7-4.1
			c-4.5-1-8.9-2.3-13.3-4c-4.4-1.7-8.3-3.8-11.8-6.6c-3.5-2.7-6.3-6-8.4-9.9c-2.1-3.9-3.2-8.6-3.2-14c0-5.6,1.3-10.5,3.8-14.8
			c2.6-4.2,6-7.8,10.3-10.7c4.3-2.9,9.1-5.1,14.5-6.6c5.4-1.5,10.9-2.2,16.7-2.2c9.7,0,18.1,1.3,25.2,3.8c7,2.6,13.2,6.2,18.5,10.8
			l-12.1,15.4c-3.5-3.1-7.8-5.8-13-7.9c-5.2-2.1-11.3-3.2-18.2-3.2c-7.1,0-12.8,1.2-17.1,3.5c-4.3,2.3-6.4,6.1-6.4,11.4
			c0,5,2.9,8.6,8.6,11c5.7,2.4,13.2,4.7,22.4,6.8c5.5,1.3,10.5,2.9,15.2,4.6c4.7,1.7,8.8,4,12.4,6.7c3.6,2.7,6.4,6.1,8.4,10
			c2.1,4,3.1,8.8,3.1,14.4c0,5.8-1.3,10.9-4,15.2c-2.6,4.4-6.2,8.1-10.7,11c-4.5,3-9.6,5.2-15.4,6.7c-5.8,1.5-11.8,2.2-18.1,2.2
			c-21.8,0-38.2-5.9-49.1-17.6L1227.2,207.8z"/>
	</g>
	<g>
		<path class="st7" d="M1179.1,132c-7.1-8.8-18.1-13.3-33-13.3c-9.9,0-18.2,2.1-24.9,6.3c-6.7,4.2-12.4,9.1-17,14.5
			c-3.3-6.8-7.9-11.9-13.8-15.5c-5.9-3.6-13.3-5.3-22.2-5.3c-5.3,0-10,0.7-14,2c-4.1,1.3-7.6,3-10.5,5c-3,2-5.5,4.2-7.7,6.6
			c-2.2,2.4-3.9,4.6-5.2,6.6l0-0.3l0,0l0,0.3c-4.8,5.5-10.7,16.8-15.6,30.4c-3,8.3-5.1,16.2-6.3,22.8v44.8h22.3v-53.6
			c0-5.5,0.5-10.9,1.6-16.4c1.1-5.5,2.9-10.3,5.5-14.5c2.6-4.2,5.9-7.6,10-10.3c4.1-2.6,9.3-4,15.4-4c7.9,0,14,2.5,18.2,7.6
			c4.2,5,6.3,12.9,6.3,23.7v67.4h22.3v-64c0-4.6,0.8-9,2.4-13.3c1.6-4.2,3.8-7.9,6.7-11c2.9-3.1,6.3-5.7,10.2-7.6
			c3.9-1.9,8.1-2.9,12.8-2.9c8.1,0,14.3,2.5,18.5,7.6c4.2,5,6.3,12.9,6.3,23.7v67.4h22.3v-69.2
			C1189.7,152.7,1186.2,140.9,1179.1,132z"/>
	</g>
	<g>
		<path class="st7" d="M1012.2,121.7c-1.8-0.6-3.6-1.1-5.6-1.4c-2.1-0.3-4.3-0.5-6.8-0.5c-5.3,0-10,0.7-14,2.1
			c-4.1,1.4-7.6,3.1-10.7,5.1c-3.1,2-5.7,4.2-7.8,6.6c-2.2,2.4-3.9,4.6-5.2,6.6l-0.7-18.6H940c0.2,3.8,0.2,7.5,0.2,11
			c0,3.6,0,7.7,0,12.5v91.7h22.3V176c0-4.8,0.9-9.3,2.6-13.6c1.7-4.3,4.1-8.1,7.1-11.3c3-3.2,6.5-5.7,10.5-7.6
			c4-1.8,8.5-2.7,13.3-2.7c3.1,0,3.5,0,6.2,0.4C1005.6,131.3,1010.4,124.1,1012.2,121.7z"/>
	</g>
	<g>
		<g>
			<path class="st7" d="M729.4,135.3h-15.6v-19.3h15.6v-6c0-41.4,31.2-46.6,47.1-46.6c5.5,0,9.2,0.7,9.2,0.7v20.6
				c0,0-2.5-0.5-6.2-0.5c-9.2,0-26.3,3-26.3,26.3v5.5h29.8v19.3h-29.8v104.4h-23.8V135.3z"/>
		</g>
	</g>
</g>
<g>
	<g>
		<g>
			<defs>
				<path id="SVGID_1_" d="M-52.9,45.1H-217c-10.6,0-19.2,8.5-19.2,19v194.3c0,10.5,8.6,19,19.2,19h115.4c3.8,0,7.5-1.6,10-4.5
					l54.7-62.4c2.1-2.4,3.2-5.4,3.2-8.5V64.1C-33.7,53.6-42.3,45.1-52.9,45.1z"/>
			</defs>
			<use xlink:href="#SVGID_1_"  style="overflow:visible;fill:#2CA2CA;"/>
			<clipPath id="SVGID_2_">
				<use xlink:href="#SVGID_1_"  style="overflow:visible;"/>
			</clipPath>
		</g>
	</g>
	<g>
		<g>
			<path class="st3" d="M-99,212.4v65l57.9-70.5h-52.7C-96.7,206.9-99,209.3-99,212.4z"/>
		</g>
	</g>
	<g class="st8">
		<path class="st5" d="M-91,221.1l-8.1,56.3l57.9-70.5l-46,10.3C-89.2,217.1-91,218.9-91,221.1z"/>
	</g>
	<g class="st9">
		<rect x="-202.8" y="80" class="st5" width="137.9" height="33.7"/>
	</g>
	<g class="st9">
		<rect x="-203.9" y="140.1" class="st5" width="105.6" height="33.7"/>
	</g>
	<g class="st9">
		<rect x="-203.4" y="200.2" class="st5" width="68.4" height="33.7"/>
	</g>
</g>
</svg>
