<?xml version="1.0" encoding="utf-8"?>
<!-- Generator: Adobe Illustrator 18.0.0, SVG Export Plug-In . SVG Version: 6.00 Build 0)  -->
<!DOCTYPE svg PUBLIC "-//W3C//DTD SVG 1.1//EN" "http://www.w3.org/Graphics/SVG/1.1/DTD/svg11.dtd">
<svg version="1.1" id="Layer_1" xmlns="http://www.w3.org/2000/svg" xmlns:xlink="http://www.w3.org/1999/xlink" x="0px" y="0px"
	 width="1000px" height="240px" viewBox="0 0 1000 240" style="enable-background:new 0 0 1000 240;" xml:space="preserve">
<style type="text/css">
	.st0{fill:#FFFFFF;}
</style>
<g>
	<path class="st0" d="M117.5,164.6c-3.5,4.3-8.1,7.8-13.8,10.5c-5.7,2.7-12.1,4.1-19.5,4.1c-6.1,0-11.7-1.1-16.9-3.4
		c-5.2-2.3-9.7-5.4-13.4-9.3c-3.8-4-6.7-8.6-8.8-14.1c-2.1-5.4-3.1-11.2-3.1-17.4s1.1-12,3.2-17.4c2.1-5.4,5.1-10.1,8.9-14.1
		c3.8-4,8.2-7.1,13.4-9.3c5.2-2.3,10.7-3.4,16.7-3.4c7.4,0,13.7,1.3,18.9,3.9c5.2,2.6,9.6,6.2,13.2,10.9l-6.2,4.7
		c-2.8-3.7-6.3-6.5-10.5-8.7c-4.2-2.1-9.3-3.2-15.4-3.2c-4.9,0-9.3,1-13.4,2.9c-4.1,1.9-7.6,4.6-10.6,7.9c-3,3.3-5.3,7.2-6.9,11.6
		c-1.6,4.4-2.5,9.2-2.5,14.2c0,5,0.9,9.7,2.6,14.2c1.7,4.4,4,8.3,7,11.6c3,3.3,6.5,5.9,10.6,7.9c4.1,1.9,8.5,2.9,13.2,2.9
		c6.1,0,11.5-1.1,16.2-3.3c4.7-2.2,8.4-5.1,11.2-8.8L117.5,164.6z"/>
	<path class="st0" d="M137.1,110.7c0-2.3,0-4.3,0-5.9c0-1.6,0-3.1,0-4.4s0-2.5-0.1-3.7c-0.1-1.2-0.2-2.4-0.3-3.7h7.7
		c0.1,1.3,0.2,2.6,0.3,3.8c0.1,1.2,0.1,2.5,0.2,3.9c0.1,1.4,0.1,3,0.1,4.7c0,1.7,0,3.7,0,6c1-1.8,2.3-3.9,3.9-6.1
		c1.6-2.3,3.7-4.4,6.3-6.3c2.6-1.9,5.5-3.6,8.9-4.9c3.4-1.3,7.4-2,11.9-2c2.7,0,5,0.4,6.9,1.3l-2.4,7.9c-0.9-0.4-1.9-0.6-3-0.7
		c-1.2-0.1-2.2-0.2-3.2-0.2c-4.4,0-8.3,1-11.9,2.9c-3.5,1.9-6.6,4.5-9.1,7.7c-2.6,3.2-4.5,6.8-5.9,10.9c-1.4,4.1-2.1,8.2-2.1,12.3
		V177h-8.2V110.7z"/>
	<path class="st0" d="M229.1,179.2c-6,0-11.6-1.2-16.8-3.5c-5.2-2.3-9.8-5.5-13.8-9.5c-4-4-7.1-8.7-9.3-14.1
		c-2.3-5.4-3.4-11.1-3.4-17.2c0-6.1,1.1-11.8,3.4-17.2c2.3-5.4,5.4-10,9.3-14.1c4-4,8.6-7.2,13.8-9.5c5.2-2.3,10.8-3.5,16.8-3.5
		c6,0,11.6,1.2,16.8,3.5c5.2,2.3,9.8,5.5,13.8,9.5c4,4,7.1,8.7,9.3,14.1c2.3,5.4,3.4,11.1,3.4,17.2c0,6.1-1.1,11.8-3.4,17.2
		c-2.3,5.4-5.4,10-9.3,14.1c-4,4-8.6,7.2-13.8,9.5C240.7,178,235.1,179.2,229.1,179.2z M229.1,171.7c4.9,0,9.4-1,13.7-2.9
		c4.3-1.9,7.9-4.6,11-7.9c3.1-3.3,5.5-7.2,7.3-11.6c1.8-4.4,2.6-9.2,2.6-14.3c0-4.9-0.9-9.5-2.7-14c-1.8-4.4-4.3-8.4-7.4-11.8
		c-3.1-3.4-6.8-6.1-11-8c-4.3-1.9-8.8-2.9-13.5-2.9c-5,0-9.6,1-13.8,2.9c-4.2,1.9-7.9,4.6-11,7.9c-3.1,3.3-5.5,7.2-7.3,11.6
		c-1.8,4.4-2.6,9.2-2.6,14.3c0,5,0.9,9.7,2.7,14.1c1.8,4.4,4.3,8.3,7.4,11.7c3.1,3.4,6.8,6.1,11,8
		C219.9,170.7,224.4,171.7,229.1,171.7z"/>
	<path class="st0" d="M280.8,93h9.1l23.4,73.2L337.4,93h7.9l23.6,74.5L391.1,93h8.4l-26.8,84h-8.9l-23.2-71.6L317,177h-7.9L280.8,93
		z"/>
	<path class="st0" d="M479.9,177c-0.1-1.6-0.2-3.2-0.2-4.7c-0.1-1.3-0.2-2.9-0.2-4.7c0-1.8,0-3.5,0-5.2c-1.8,3.2-4.3,6-7.3,8.4
		c-2.6,2.1-5.8,4-9.7,5.8c-3.9,1.8-8.6,2.6-14.1,2.6c-6.5,0-12.1-1.1-16.8-3.4c-4.7-2.3-8.7-5.3-11.8-9.2c-3.1-3.9-5.4-8.5-6.9-13.8
		c-1.5-5.3-2.3-11-2.3-17.1c0-6.8,1.1-13,3.2-18.5c2.1-5.5,5.1-10.3,8.9-14.2c3.8-3.9,8.4-6.9,13.7-9c5.3-2.1,11.1-3.2,17.4-3.2
		c3.5,0,6.8,0.4,9.8,1.3c3,0.9,5.7,1.8,8.1,2.7c2.7,1.2,5.2,2.6,7.7,4V55.2h8v104.3c0,2.4,0,4.7,0,6.8c0,2.1,0.1,4,0.2,5.6
		c0,1.9,0.1,3.7,0.2,5.1H479.9z M479.5,107.8c-1.8-1.7-4-3.2-6.4-4.6c-2.1-1.2-4.7-2.3-8-3.3c-3.3-1-7.1-1.5-11.3-1.5
		c-4.4,0-8.6,0.7-12.7,2.1c-4.1,1.4-7.7,3.6-11,6.7c-3.2,3-5.8,6.9-7.8,11.7c-1.9,4.7-2.9,10.4-2.9,17c0,4.7,0.5,9.3,1.6,13.5
		c1.1,4.3,2.8,8,5.2,11.3c2.4,3.3,5.4,5.9,9.2,7.9c3.8,1.9,8.4,2.9,13.9,2.9c5.1,0,9.6-0.9,13.3-2.8c3.8-1.9,6.9-4.2,9.4-7
		c2.5-2.8,4.4-5.8,5.6-8.9c1.2-3.1,1.8-5.9,1.8-8.3V107.8z"/>
	<path class="st0" d="M613.3,155.9c-3.7-7-5.5-14.7-5.5-23.1c0-8.4,1.8-16.1,5.5-23.1c3.7-6.9,9.1-12.5,16.2-16.8
		c7.2-4.2,15.4-6.4,24.8-6.4c9.4,0,17.8,2.1,24.9,6.4c7.2,4.3,12.6,9.8,16.3,16.8c3.7,6.9,5.5,14.6,5.5,23.1
		c0,8.4-1.8,16.2-5.5,23.1c-3.7,7-9.1,12.6-16.3,16.9c-7.2,4.3-15.5,6.4-24.9,6.4c-9.4,0-17.7-2.1-24.8-6.4
		C622.3,168.5,616.9,162.9,613.3,155.9z M631.8,132.8c0,7.3,2,13.4,6,18.3c4,5,9.5,7.4,16.5,7.4c7,0,12.6-2.5,16.6-7.4
		c4.1-4.9,6.1-11.1,6.1-18.4c0-7.2-2-13.2-6.1-18.1c-4-4.9-9.6-7.4-16.6-7.4c-7,0-12.5,2.5-16.5,7.4
		C633.8,119.5,631.8,125.6,631.8,132.8z"/>
	<path class="st0" d="M718.4,177V88.8h23.2v11.9c3.4-4,7.6-7.4,12.7-10.1s10.2-4,15.5-4v22.7c-1.6-0.4-3.7-0.5-6.4-0.5
		c-3.9,0-8.1,1-12.4,3c-4.3,2-7.5,4.4-9.4,7.1V177H718.4z"/>
	<path class="st0" d="M778.5,132.8c0-13.5,4.4-24.6,13.2-33.2c8.8-8.6,20-13,33.6-13c15.5,0,27.1,5.3,34.9,15.9L845,116.7
		c-4.2-6.3-10.4-9.5-18.6-9.5c-7.1,0-12.8,2.3-17.3,7c-4.4,4.7-6.6,10.9-6.6,18.5c0,7.7,2.2,13.9,6.6,18.6
		c4.4,4.8,10.2,7.1,17.3,7.1c8,0,14.2-3.2,18.6-9.6l15.2,14.2c-3.4,4.6-8,8.5-13.7,11.5c-5.8,3.1-12.8,4.6-21.1,4.6
		c-13.6,0-24.7-4.4-33.6-13.1C782.9,157.4,778.5,146.3,778.5,132.8z"/>
	<path class="st0" d="M869.5,132.8c0-8.5,1.9-16.3,5.8-23.3c3.9-7,9.3-12.6,16.3-16.7c7-4.1,14.9-6.2,23.5-6.2
		c13.2,0,23.9,4.5,32,13.4c8.1,8.9,12.2,20.6,12.2,35v5.4h-65.5c0.8,5.7,3.5,10.4,7.9,14.2c4.5,3.7,10.3,5.6,17.5,5.6
		c3.9,0,8.1-0.8,12.6-2.4c4.5-1.6,8.1-3.7,10.7-6.3l10.3,15.3c-4.3,3.9-9.6,7-16.1,9.1c-6.5,2.1-13.2,3.2-20.2,3.2
		c-13.6,0-24.9-4.3-33.8-12.8C874,157.9,869.5,146.7,869.5,132.8z M893.6,124.4H937c-0.2-2.3-0.7-4.4-1.6-6.5
		c-0.9-2.1-2.2-4.1-3.8-6c-1.6-1.9-3.9-3.4-6.7-4.6c-2.9-1.2-6.1-1.7-9.7-1.7c-3.4,0-6.5,0.6-9.3,1.7c-2.7,1.1-4.9,2.6-6.6,4.5
		c-1.7,1.9-3,3.9-3.9,6C894.4,119.8,893.9,122.1,893.6,124.4z"/>
	<g>
		<path class="st0" d="M579.8,129.9h-67.5v-23h67.5"/>
		<path class="st0" d="M600.1,78.2h-87.4v-23h87.4"/>
		<path class="st0" d="M547.8,177.8h-35.2v-23h35.2"/>
	</g>
</g>
</svg>
