<?xml version="1.0" encoding="utf-8"?>
<!-- Generator: Adobe Illustrator 18.0.0, SVG Export Plug-In . SVG Version: 6.00 Build 0)  -->
<!DOCTYPE svg PUBLIC "-//W3C//DTD SVG 1.1//EN" "http://www.w3.org/Graphics/SVG/1.1/DTD/svg11.dtd">
<svg version="1.1" id="Layer_1" xmlns="http://www.w3.org/2000/svg" xmlns:xlink="http://www.w3.org/1999/xlink" x="0px" y="0px"
	 width="564px" height="474px" viewBox="19 64 564 474" style="enable-background:new 19 64 564 474;" xml:space="preserve">
<style type="text/css">
	.st0{fill:#E4E7EA;stroke:#FFFFFF;stroke-width:0.3;stroke-miterlimit:3.9745;}
	.st1{fill:#E4E7EA;stroke:#FFFFFF;stroke-width:0.5;stroke-miterlimit:3.9745;}
</style>
<g id="africa">
	<g id="ng">
		<path id="path5382" class="st0" d="M231.6,522.4c5.5-0.4,7.5-3.4,3-6.7C232.8,517.6,231.7,519.8,231.6,522.4"/>
		<path id="path5386" class="st0" d="M243.4,520c1.5-0.8,2.9-1.6,4.4-2.4c-3.1,0.1-6,0.7-8.7,2C240.4,519.8,241.9,519.9,243.4,520"
			/>
		<path id="path5406" class="st1" d="M23.5,356.1c5.4-17.1-2.5-37.4,5.7-53.5c2.1-4,9.8-0.5,13.4-4.3c6.2-6.5,0.5-14.4,6.9-20.9
			c4.2-4.2,3.9-11,9-13.7c5.4-2.8,13.4-8.8,10.7-15.7c-2.1-5.3-4.8-9.8,3.1-11.2c11.1-2,2.1-16.3,0.8-20.6
			c-1.2-4.4,0.5-8.2-2.1-12.5c-2.2-3.6-5.6-6.5-7.8-10.2c-4.4-7.5,1.9-13.9,4.3-20.9c3-8.5,0.8-17.5,1.4-26.3
			c0.7-10.6,3.9-12.8,12.1-20c7.1-6.3,10.1-15.8,9.8-24.4c-0.3-7.4,5.4-11.8,11.2-16.2c6.9-5.1,15.4-6.5,24.2-6.9
			c11.4-0.4,17.6-4.1,28.2-6.5c6.2-1.4,14.2,4.9,19.3,7.2c8.8,4,17.9,1.6,25.6,8.2c6.7,5.9,10,12.8,14.5,19.9
			c1.8,2.7,4.1,5.6,7.6,6.5c7.3,2.1,8.2-5.2,14.1-5.7c19.3-1.9,25.6-17.4,45.7-4.6c2.8,1.8,5.9,3.8,7.7,6.5c0.8,1.3,6.2,0.6,7.7,1.3
			c8.4,4,11.7,9.7,22.7,10c6.3,0.2,19.6,3.4,25.1,1.2c7.8-3.1,10.5-12.2,17.2-16.7C377.7,95.3,402,94.4,421.3,96
			c10.1,0.9,19.1,3.3,28,7.5c7.5,3.5,17,8.8,25.7,5.9c8.5-2.7,12.9-11.4,19.9-16.1c3.8-2.6,7.6-5,12.5-5.3c7.5-0.4,2.4-1.6,6.5-4.2
			c14.6-9.2,19.3,1,27,11.7c7.8,10.8,15.2,23.3,16.2,36.4c0.2,2.5-2.5,10.6,0,12.3c3.1,2.3,8.4-0.7,11.9,1c16.2,8,1.6,22.4,7.6,32.3
			c5.1,8.4-18.6,19.1-25.1,19.4c-13.4,0.5-21.3,23.5-24.8,33c-2,5.4-2,11.1-3.9,16.5c-2,6-10.7,5.8-10.8,12.6
			c-0.2,6,3.8,11.7-1.5,17c-4.4,4.6-10.7,8-16.6,10.7c6.5,1.2,0,16.3-0.5,19.7c-1.3,9.8-8.4,15.4-19.3,15.8c1,5.1-3.4,6.3-6.4,9.5
			c-3.8,4-2.7,10.1-3.8,14.9c-2.4,11.2-6.2,23.4-14.5,32.3c-7.7,8.2,1,14.2-9.9,21.9c-6.1,4.4-2.6,8-4.9,13.6
			c-1.5,3.6-6.5,5.7-8.5,9.1c-2,3.3-8.6,1.3-11.4,0.4c-3.4-1.2-3-9-3.2-11.7c-0.2-3.2-6.9-5-8.5-8.7c-2.6-5.8-11.2-4.9-13-11.6
			c-1.3,4.2-1.7,11.5-7.6,12.6c-7.4,1.5-10.5-5.5-16.5-4c-10.9,2.7-17.5,18-25.1,24.8c-5.3,4.8-39.5,30.8-30.6,36.6
			c3.9,2.6-1.9,16.9-3.4,20.9c-3.3,8.9-11.3,15.5-14.2,24.1c-3.7-0.9-5.2-3.5-3.5-6.7c-4,2.3-7-1.2-8.7-3.9
			c3.8,12.9,7.4,15.9-9.2,18.1c-6.6,0.9-28.3,4.8-22.2-7.5c-2.8,4.9-3,6.3-9.6,5.9c-7.3-0.4-6.1-2.1-13.2-6.4
			c3.3,2.2,7.4,13.6-0.5,10.7c-5.3-1.9,2.5-13.4-6.8-9.1c2.7,4.8,4.9,9.3,2.7,14.6c-4.4-1.6-9.4-15.8-7.9-20.1
			c-5,3.9,3.3,15.3,0.7,20.6c-3.6,7.4-3.6-10-3.4-11.6c-0.8,2.2-2.1,14.1-2.6,3.5c-0.1,3.1-0.6,6.7-3,9.1c-0.1-2.9-1-5.5-2.6-7.9
			c1.9,3.4,1.8,8.8-4,8.4c-10.4-0.9-7.6,1.3-10.4-7.6c0.1,8.4-7.1,15.7-8.7,3.5c0.1,7.9-2.2,2.7-8.5-0.1
			c-6.3-2.7-10.5-8.3-13.7-13.7c-3-5.1-6.8-10.6-5.2-16.5c1.1-4,1.6-7.6-4.5-6c-1.2-4.3-0.7-6.7,4.2-7.6c9.4-1.7,0.6-4.8,7.6-8.6
			c-5,0.3-9.3,6.4-14.2,5.4c-15.7-3.2,5.7-8.1,9.4-8.6c-2.5-2.7-5.5-3.2-8.7-1.2c0.1-1.7,0.2-3.4,0.4-5.1c-1,4.9-7.9,8.4-10.5,2.3
			c-2.4-5.5,5-7.9,8.3-11c-3.9,1.5-7.5,3.9-10.5,6.7c-6-12.3-19.3-25.9-34.2-29.3c-7.3-1.6-15.9-2.5-23.4-2.1
			c-5.8,0.3-14.3,2.6-19.3-1.3c6.3,1.1,15.6-2.7,19.2-7.5c-6.5-0.2-11.1,6.7-17.5,2c-2.2,2.4-2.8,5.2-1.7,8.2
			c-10.5,1.2-21.1-0.5-31.5,1.6c-0.4-5.9,3.3-11.1,3.5-17c0.1-6-2.9-10.4-1.3-16.7C30,384.8,30.2,365.3,23.5,356.1"/>
	</g>
</g>
</svg>
